solid conveyor r2
facet normal -0.9238795346437563 0.3826834272168534 -1.0120665488023833e-14
  outer loop
    vertex 47.83986238905771 -784.5531405204728 66.93466588818755
    vertex 48.20721163782339 -783.8081692608351 60.58435042729707
    vertex 47.83983792040784 -784.5531294653168 60.58435042729709
  endloop
endfacet
facet normal -0.866025412505714 0.4999999848943078 -1.3223604676500699e-14
  outer loop
    vertex 48.20721163782339 -783.8081692608351 60.58435042729707
    vertex 47.83986238905771 -784.5531405204728 66.93466588818755
    vertex 48.20723610647326 -783.8081803159911 66.93466588818752
  endloop
endfacet
facet normal -0.3826833210544037 0.9238795786176748 -2.443393419886687e-14
  outer loop
    vertex 51.276457624986136 -781.1165452845445 66.93466588818744
    vertex 52.062972015453504 -780.8495402638995 60.58435042729717
    vertex 51.27643315633626 -781.1165342293884 60.58435042729717
  endloop
endfacet
facet normal -0.25881917666719145 0.9659257910364114 -2.55461075642909e-14
  outer loop
    vertex 52.062972015453504 -780.8495402638995 60.58435042729717
    vertex 51.276457624986136 -781.1165452845445 66.93466588818744
    vertex 52.06299648410338 -780.8495513190555 66.93466588818744
  endloop
endfacet
facet normal -0.9999999996714575 -2.5633670716923638e-05 7.817251928485681e-19
  outer loop
    vertex 47.35688516866742 -803.0642376839654 60.585006580604556
    vertex 47.35649742050442 -786.9831803159911 66.93466588818761
    vertex 47.35647295185455 -786.9831692608351 60.58435042729715
  endloop
endfacet
facet normal -0.9999999996714575 -2.5633670716923638e-05 7.817251928485681e-19
  outer loop
    vertex 47.35649742050442 -786.9831803159911 66.93466588818761
    vertex 47.35688516866742 -803.0642376839654 60.585006580604556
    vertex 47.35690963731729 -803.0642487391214 66.93532204149484
  endloop
endfacet
facet normal 4.63080566051558e-07 -8.38267832298516e-06 -0.9999999999647582
  outer loop
    vertex 158.7425263065423 -850.9498788218402 60.58500658060593
    vertex 95.13323908894766 -828.7248788218404 60.585006580605295
    vertex 158.7425263065423 -828.7248788218403 60.585006580605295
  endloop
endfacet
facet normal 4.63080566051558e-07 -8.38267832298516e-06 -0.9999999999647582
  outer loop
    vertex 95.13323908894766 -828.7248788218404 60.585006580605295
    vertex 158.7425263065423 -850.9498788218402 60.58500658060593
    vertex 55.42707083477461 -829.6680744892277 60.585006580605494
  endloop
endfacet
facet normal 4.63080566051558e-07 -8.38267832298516e-06 -0.9999999999647582
  outer loop
    vertex 55.42707083477461 -829.6680744892277 60.585006580605494
    vertex 158.7425263065423 -850.9498788218402 60.58500658060593
    vertex 57.25229295782181 -832.215169012057 60.585006580605565
  endloop
endfacet
facet normal 4.63080566051558e-07 -8.38267832298516e-06 -0.9999999999647582
  outer loop
    vertex 57.25229295782181 -832.215169012057 60.585006580605565
    vertex 158.7425263065423 -850.9498788218402 60.58500658060593
    vertex 59.240195092435044 -834.6374347716071 60.58500658060564
  endloop
endfacet
facet normal 4.63080566051558e-07 -8.38267832298516e-06 -0.9999999999647582
  outer loop
    vertex 59.240195092435044 -834.6374347716071 60.58500658060564
    vertex 158.7425263065423 -850.9498788218402 60.58500658060593
    vertex 61.3822647364854 -836.9244992540223 60.5850065806057
  endloop
endfacet
facet normal 4.63080566051558e-07 -8.38267832298516e-06 -0.9999999999647582
  outer loop
    vertex 61.3822647364854 -836.9244992540223 60.5850065806057
    vertex 158.7425263065423 -850.9498788218402 60.58500658060593
    vertex 63.669329218900785 -839.0665688980728 60.585006580605764
  endloop
endfacet
facet normal 4.63080566051558e-07 -8.38267832298516e-06 -0.9999999999647582
  outer loop
    vertex 63.669329218900785 -839.0665688980728 60.585006580605764
    vertex 158.7425263065423 -850.9498788218402 60.58500658060593
    vertex 66.0915949784508 -841.054471032686 60.58500658060582
  endloop
endfacet
facet normal 4.63080566051558e-07 -8.38267832298516e-06 -0.9999999999647582
  outer loop
    vertex 66.0915949784508 -841.054471032686 60.58500658060582
    vertex 158.7425263065423 -850.9498788218402 60.58500658060593
    vertex 68.6386895012801 -842.8796931557331 60.58500658060587
  endloop
endfacet
facet normal 4.63080566051558e-07 -8.38267832298516e-06 -0.9999999999647582
  outer loop
    vertex 68.6386895012801 -842.8796931557331 60.58500658060587
    vertex 158.7425263065423 -850.9498788218402 60.58500658060593
    vertex 71.29970573760485 -844.5344193858704 60.58500658060593
  endloop
endfacet
facet normal 4.63080566051558e-07 -8.38267832298516e-06 -0.9999999999647582
  outer loop
    vertex 71.29970573760485 -844.5344193858704 60.58500658060593
    vertex 158.7425263065423 -850.9498788218402 60.58500658060593
    vertex 74.06324880737449 -846.0115639313418 60.585006580605956
  endloop
endfacet
facet normal 4.63080566051558e-07 -8.38267832298516e-06 -0.9999999999647582
  outer loop
    vertex 74.06324880737449 -846.0115639313418 60.585006580605956
    vertex 158.7425263065423 -850.9498788218402 60.58500658060593
    vertex 76.9174847948974 -847.3048014324287 60.58500658060618
  endloop
endfacet
facet normal 4.63080566051558e-07 -8.38267832298516e-06 -0.9999999999647582
  outer loop
    vertex 76.9174847948974 -847.3048014324287 60.58500658060618
    vertex 158.7425263065423 -850.9498788218402 60.58500658060593
    vertex 79.85019142348469 -848.4085940476095 60.58500658060603
  endloop
endfacet
facet normal 4.63080566051558e-07 -8.38267832298516e-06 -0.9999999999647582
  outer loop
    vertex 79.85019142348469 -848.4085940476095 60.58500658060603
    vertex 158.7425263065423 -850.9498788218402 60.58500658060593
    vertex 82.84881039311554 -849.3182151674491 60.58500658060606
  endloop
endfacet
facet normal 4.63080566051558e-07 -8.38267832298516e-06 -0.9999999999647582
  outer loop
    vertex 82.84881039311554 -849.3182151674491 60.58500658060606
    vertex 158.7425263065423 -850.9498788218402 60.58500658060593
    vertex 85.90050115700551 -850.0297696546645 60.58500658060607
  endloop
endfacet
facet normal 4.63080566051558e-07 -8.38267832298516e-06 -0.9999999999647582
  outer loop
    vertex 85.90050115700551 -850.0297696546645 60.58500658060607
    vertex 158.7425263065423 -850.9498788218402 60.58500658060593
    vertex 88.99219590679958 -850.5402105237018 60.58500658060609
  endloop
endfacet
facet normal 4.63080566051558e-07 -8.38267832298516e-06 -0.9999999999647582
  outer loop
    vertex 88.99219590679958 -850.5402105237018 60.58500658060609
    vertex 158.7425263065423 -850.9498788218402 60.58500658060593
    vertex 92.11065553093361 -850.8473519883955 60.58500658060609
  endloop
endfacet
facet normal 4.63080566051558e-07 -8.38267832298516e-06 -0.9999999999647582
  outer loop
    vertex 92.11065553093361 -850.8473519883955 60.58500658060609
    vertex 158.7425263065423 -850.9498788218402 60.58500658060593
    vertex 95.13323908894766 -850.9498788218402 60.58500658060593
  endloop
endfacet
facet normal 4.63080566051558e-07 -8.38267832298516e-06 -0.9999999999647582
  outer loop
    vertex 95.13323908894766 -850.9498788218402 60.58500658060593
    vertex 158.7425263065423 -850.9498788218402 60.58500658060593
    vertex 95.23871102947399 -850.9498788218402 60.58500658060593
  endloop
endfacet
facet normal 4.63080566051558e-07 -8.38267832298516e-06 -0.9999999999647582
  outer loop
    vertex 54.80597710232836 -780.6331692608352 60.5843504272968
    vertex 52.87763163125726 -780.6874943911114 60.584350427296975
    vertex 53.70647295185455 -780.6331692608351 60.584350427296975
  endloop
endfacet
facet normal 4.63080566051558e-07 -8.38267832298516e-06 -0.9999999999647582
  outer loop
    vertex 52.87763163125726 -780.6874943911114 60.584350427296975
    vertex 54.80597710232836 -780.6331692608352 60.5843504272968
    vertex 55.827876718871444 -780.6332068829744 60.585006580604094
  endloop
endfacet
facet normal 4.63080566051558e-07 -8.38267832298516e-06 -0.9999999999647582
  outer loop
    vertex 52.87763163125726 -780.6874943911114 60.584350427296975
    vertex 55.827876718871444 -780.6332068829744 60.585006580604094
    vertex 70.156306381701 -797.7091644098849 60.5850065806044
  endloop
endfacet
facet normal 4.63080566051558e-07 -8.38267832298516e-06 -0.9999999999647582
  outer loop
    vertex 52.87763163125726 -780.6874943911114 60.584350427296975
    vertex 70.156306381701 -797.7091644098849 60.5850065806044
    vertex 52.062972015453504 -780.8495402638995 60.58435042729717
  endloop
endfacet
facet normal 4.63080566051558e-07 -8.38267832298516e-06 -0.9999999999647582
  outer loop
    vertex 52.062972015453504 -780.8495402638995 60.58435042729717
    vertex 70.156306381701 -797.7091644098849 60.5850065806044
    vertex 51.27643315633626 -781.1165342293884 60.58435042729717
  endloop
endfacet
facet normal 4.63080566051558e-07 -8.38267832298516e-06 -0.9999999999647582
  outer loop
    vertex 51.27643315633626 -781.1165342293884 60.58435042729717
    vertex 70.156306381701 -797.7091644098849 60.5850065806044
    vertex 50.531472951854546 -781.4839079468039 60.584350427297
  endloop
endfacet
facet normal 4.63080566051558e-07 -8.38267832298516e-06 -0.9999999999647582
  outer loop
    vertex 50.531472951854546 -781.4839079468039 60.584350427297
    vertex 70.156306381701 -797.7091644098849 60.5850065806044
    vertex 49.84083787764916 -781.9453755499858 60.58435042729702
  endloop
endfacet
facet normal 4.63080566051558e-07 -8.38267832298516e-06 -0.9999999999647582
  outer loop
    vertex 49.84083787764916 -781.9453755499858 60.58435042729702
    vertex 70.156306381701 -797.7091644098849 60.5850065806044
    vertex 49.216344891319935 -782.4930412003006 60.58435042729703
  endloop
endfacet
facet normal 4.63080566051558e-07 -8.38267832298516e-06 -0.9999999999647582
  outer loop
    vertex 49.216344891319935 -782.4930412003006 60.58435042729703
    vertex 70.156306381701 -797.7091644098849 60.5850065806044
    vertex 48.668679241005215 -783.1175341866298 60.584350427297224
  endloop
endfacet
facet normal 4.63080566051558e-07 -8.38267832298516e-06 -0.9999999999647582
  outer loop
    vertex 48.668679241005215 -783.1175341866298 60.584350427297224
    vertex 70.156306381701 -797.7091644098849 60.5850065806044
    vertex 48.20721163782339 -783.8081692608351 60.58435042729707
  endloop
endfacet
facet normal 4.63080566051558e-07 -8.38267832298516e-06 -0.9999999999647582
  outer loop
    vertex 48.20721163782339 -783.8081692608351 60.58435042729707
    vertex 70.156306381701 -797.7091644098849 60.5850065806044
    vertex 47.83983792040784 -784.5531294653168 60.58435042729709
  endloop
endfacet
facet normal 4.63080566051558e-07 -8.38267832298516e-06 -0.9999999999647582
  outer loop
    vertex 47.83983792040784 -784.5531294653168 60.58435042729709
    vertex 70.156306381701 -797.7091644098849 60.5850065806044
    vertex 47.57284395491898 -785.3396683244341 60.58435042729711
  endloop
endfacet
facet normal 4.63080566051558e-07 -8.38267832298516e-06 -0.9999999999647582
  outer loop
    vertex 47.57284395491898 -785.3396683244341 60.58435042729711
    vertex 70.156306381701 -797.7091644098849 60.5850065806044
    vertex 47.410798082130874 -786.1543279402379 60.58435042729713
  endloop
endfacet
facet normal 4.63080566051558e-07 -8.38267832298516e-06 -0.9999999999647582
  outer loop
    vertex 47.410798082130874 -786.1543279402379 60.58435042729713
    vertex 70.156306381701 -797.7091644098849 60.5850065806044
    vertex 47.35647295185455 -786.9831692608351 60.58435042729715
  endloop
endfacet
facet normal 4.63080566051558e-07 -8.38267832298516e-06 -0.9999999999647582
  outer loop
    vertex 47.35647295185455 -786.9831692608351 60.58435042729715
    vertex 70.156306381701 -797.7091644098849 60.5850065806044
    vertex 47.35688516866742 -803.0642376839654 60.585006580604556
  endloop
endfacet
facet normal 4.63080566051558e-07 -8.38267832298516e-06 -0.9999999999647582
  outer loop
    vertex 47.35688516866742 -803.0642376839654 60.585006580604556
    vertex 70.156306381701 -797.7091644098849 60.5850065806044
    vertex 70.07494719280537 -798.0580949412373 60.58500658060478
  endloop
endfacet
facet normal 4.63080566051558e-07 -8.38267832298516e-06 -0.9999999999647582
  outer loop
    vertex 47.35688516866742 -803.0642376839654 60.585006580604556
    vertex 70.07494719280537 -798.0580949412373 60.58500658060478
    vertex 69.80141551083919 -799.7148519063137 60.58500658060464
  endloop
endfacet
facet normal 4.63080566051558e-07 -8.38267832298516e-06 -0.9999999999647582
  outer loop
    vertex 47.35688516866742 -803.0642376839654 60.585006580604556
    vertex 69.80141551083919 -799.7148519063137 60.58500658060464
    vertex 69.63682657109065 -801.3859514554969 60.585006580604876
  endloop
endfacet
facet normal 4.63080566051558e-07 -8.38267832298516e-06 -0.9999999999647582
  outer loop
    vertex 47.35688516866742 -803.0642376839654 60.585006580604556
    vertex 69.63682657109065 -801.3859514554969 60.585006580604876
    vertex 69.58188516866741 -803.0642376839654 60.58500658060438
  endloop
endfacet
facet normal 4.63080566051558e-07 -8.38267832298516e-06 -0.9999999999647582
  outer loop
    vertex 47.35688516866742 -803.0642376839654 60.585006580604556
    vertex 69.58188516866741 -803.0642376839654 60.58500658060438
    vertex 69.6368265710902 -804.7425239124342 60.58500658060442
  endloop
endfacet
facet normal 4.63080566051558e-07 -8.38267832298516e-06 -0.9999999999647582
  outer loop
    vertex 47.35688516866742 -803.0642376839654 60.585006580604556
    vertex 69.6368265710902 -804.7425239124342 60.58500658060442
    vertex 47.459412002112224 -806.1961084595741 60.58500658060465
  endloop
endfacet
facet normal 4.63080566051558e-07 -8.38267832298516e-06 -0.9999999999647582
  outer loop
    vertex 47.459412002112224 -806.1961084595741 60.58500658060465
    vertex 69.6368265710902 -804.7425239124342 60.58500658060442
    vertex 69.80141551083882 -806.4136234616175 60.58500658060447
  endloop
endfacet
facet normal 4.63080566051558e-07 -8.38267832298516e-06 -0.9999999999647582
  outer loop
    vertex 47.459412002112224 -806.1961084595741 60.58500658060465
    vertex 69.80141551083882 -806.4136234616175 60.58500658060447
    vertex 47.766553466805824 -809.3145680837081 60.585006580604556
  endloop
endfacet
facet normal 4.63080566051558e-07 -8.38267832298516e-06 -0.9999999999647582
  outer loop
    vertex 47.766553466805824 -809.3145680837081 60.585006580604556
    vertex 69.80141551083882 -806.4136234616175 60.58500658060447
    vertex 70.07494719280501 -808.0703804266938 60.585006580604514
  endloop
endfacet
facet normal 4.63080566051558e-07 -8.38267832298516e-06 -0.9999999999647582
  outer loop
    vertex 47.766553466805824 -809.3145680837081 60.585006580604556
    vertex 70.07494719280501 -808.0703804266938 60.585006580604514
    vertex 70.45625031233325 -809.7057003199888 60.58500658060457
  endloop
endfacet
facet normal 4.63080566051558e-07 -8.38267832298516e-06 -0.9999999999647582
  outer loop
    vertex 47.766553466805824 -809.3145680837081 60.585006580604556
    vertex 70.45625031233325 -809.7057003199888 60.58500658060457
    vertex 48.27699433584319 -812.4062628335022 60.58500658060482
  endloop
endfacet
facet normal 4.63080566051558e-07 -8.38267832298516e-06 -0.9999999999647582
  outer loop
    vertex 48.27699433584319 -812.4062628335022 60.58500658060482
    vertex 70.45625031233325 -809.7057003199888 60.58500658060457
    vertex 70.94369207092694 -811.3125804506603 60.58500658060461
  endloop
endfacet
facet normal 4.63080566051558e-07 -8.38267832298516e-06 -0.9999999999647582
  outer loop
    vertex 48.27699433584319 -812.4062628335022 60.58500658060482
    vertex 70.94369207092694 -811.3125804506603 60.58500658060461
    vertex 71.53518516814256 -812.8841399112962 60.58500658060466
  endloop
endfacet
facet normal 4.63080566051558e-07 -8.38267832298516e-06 -0.9999999999647582
  outer loop
    vertex 48.27699433584319 -812.4062628335022 60.58500658060482
    vertex 71.53518516814256 -812.8841399112962 60.58500658060466
    vertex 48.98854882305867 -815.4579535973922 60.58500658060491
  endloop
endfacet
facet normal 4.63080566051558e-07 -8.38267832298516e-06 -0.9999999999647582
  outer loop
    vertex 48.98854882305867 -815.4579535973922 60.58500658060491
    vertex 71.53518516814256 -812.8841399112962 60.58500658060466
    vertex 72.22819673972997 -814.413649043016 60.585006580604876
  endloop
endfacet
facet normal 4.63080566051558e-07 -8.38267832298516e-06 -0.9999999999647582
  outer loop
    vertex 48.98854882305867 -815.4579535973922 60.58500658060491
    vertex 72.22819673972997 -814.413649043016 60.585006580604876
    vertex 73.0197592037466 -815.8945582529029 60.58500658060474
  endloop
endfacet
facet normal 4.63080566051558e-07 -8.38267832298516e-06 -0.9999999999647582
  outer loop
    vertex 48.98854882305867 -815.4579535973922 60.58500658060491
    vertex 73.0197592037466 -815.8945582529029 60.58500658060474
    vertex 49.89816994289828 -818.456572567023 60.585006580605
  endloop
endfacet
facet normal 4.63080566051558e-07 -8.38267832298516e-06 -0.9999999999647582
  outer loop
    vertex 49.89816994289828 -818.456572567023 60.585006580605
    vertex 73.0197592037466 -815.8945582529029 60.58500658060474
    vertex 73.90648296819873 -817.320526060367 60.585006580604784
  endloop
endfacet
facet normal 4.63080566051558e-07 -8.38267832298516e-06 -0.9999999999647582
  outer loop
    vertex 49.89816994289828 -818.456572567023 60.585006580605
    vertex 73.90648296819873 -817.320526060367 60.585006580604784
    vertex 74.88457094579461 -818.6854462523381 60.58500658060482
  endloop
endfacet
facet normal 4.63080566051558e-07 -8.38267832298516e-06 -0.9999999999647582
  outer loop
    vertex 49.89816994289828 -818.456572567023 60.585006580605
    vertex 74.88457094579461 -818.6854462523381 60.58500658060482
    vertex 51.00196255807921 -821.3892791956104 60.58500658060526
  endloop
endfacet
facet normal 4.63080566051558e-07 -8.38267832298516e-06 -0.9999999999647582
  outer loop
    vertex 51.00196255807921 -821.3892791956104 60.58500658060526
    vertex 74.88457094579461 -818.6854462523381 60.58500658060482
    vertex 75.9498348136553 -819.9834740310079 60.58500658060486
  endloop
endfacet
facet normal 4.63080566051558e-07 -8.38267832298516e-06 -0.9999999999647582
  outer loop
    vertex 51.00196255807921 -821.3892791956104 60.58500658060526
    vertex 75.9498348136553 -819.9834740310079 60.58500658060486
    vertex 77.09771294835646 -821.2090510421511 60.5850065806049
  endloop
endfacet
facet normal 4.63080566051558e-07 -8.38267832298516e-06 -0.9999999999647582
  outer loop
    vertex 51.00196255807921 -821.3892791956104 60.58500658060526
    vertex 77.09771294835646 -821.2090510421511 60.5850065806049
    vertex 78.32328995949987 -822.3569291768524 60.58500658060493
  endloop
endfacet
facet normal 4.63080566051558e-07 -8.38267832298516e-06 -0.9999999999647582
  outer loop
    vertex 51.00196255807921 -821.3892791956104 60.58500658060526
    vertex 78.32328995949987 -822.3569291768524 60.58500658060493
    vertex 52.29520005916595 -824.2435151831334 60.58500658060534
  endloop
endfacet
facet normal 4.63080566051558e-07 -8.38267832298516e-06 -0.9999999999647582
  outer loop
    vertex 52.29520005916595 -824.2435151831334 60.58500658060534
    vertex 78.32328995949987 -822.3569291768524 60.58500658060493
    vertex 79.62131773816958 -823.4221930447133 60.585006580604954
  endloop
endfacet
facet normal 4.63080566051558e-07 -8.38267832298516e-06 -0.9999999999647582
  outer loop
    vertex 52.29520005916595 -824.2435151831334 60.58500658060534
    vertex 79.62131773816958 -823.4221930447133 60.585006580604954
    vertex 80.9862379301407 -824.400281022309 60.58500658060517
  endloop
endfacet
facet normal 4.63080566051558e-07 -8.38267832298516e-06 -0.9999999999647582
  outer loop
    vertex 52.29520005916595 -824.2435151831334 60.58500658060534
    vertex 80.9862379301407 -824.400281022309 60.58500658060517
    vertex 53.77234460463742 -827.007058252903 60.585006580605416
  endloop
endfacet
facet normal 4.63080566051558e-07 -8.38267832298516e-06 -0.9999999999647582
  outer loop
    vertex 53.77234460463742 -827.007058252903 60.585006580605416
    vertex 80.9862379301407 -824.400281022309 60.58500658060517
    vertex 82.41220573760484 -825.2870047867611 60.58500658060501
  endloop
endfacet
facet normal 4.63080566051558e-07 -8.38267832298516e-06 -0.9999999999647582
  outer loop
    vertex 53.77234460463742 -827.007058252903 60.585006580605416
    vertex 82.41220573760484 -825.2870047867611 60.58500658060501
    vertex 83.89311494749175 -826.0785672507778 60.58500658060503
  endloop
endfacet
facet normal 4.63080566051558e-07 -8.38267832298516e-06 -0.9999999999647582
  outer loop
    vertex 53.77234460463742 -827.007058252903 60.585006580605416
    vertex 83.89311494749175 -826.0785672507778 60.58500658060503
    vertex 85.42262407921153 -826.7715788223651 60.585006580605054
  endloop
endfacet
facet normal 4.63080566051558e-07 -8.38267832298516e-06 -0.9999999999647582
  outer loop
    vertex 53.77234460463742 -827.007058252903 60.585006580605416
    vertex 85.42262407921153 -826.7715788223651 60.585006580605054
    vertex 86.9941835398475 -827.3630719195808 60.585006580605246
  endloop
endfacet
facet normal 4.63080566051558e-07 -8.38267832298516e-06 -0.9999999999647582
  outer loop
    vertex 53.77234460463742 -827.007058252903 60.585006580605416
    vertex 86.9941835398475 -827.3630719195808 60.585006580605246
    vertex 55.42707083477461 -829.6680744892277 60.585006580605494
  endloop
endfacet
facet normal 4.63080566051558e-07 -8.38267832298516e-06 -0.9999999999647582
  outer loop
    vertex 55.42707083477461 -829.6680744892277 60.585006580605494
    vertex 86.9941835398475 -827.3630719195808 60.585006580605246
    vertex 88.60106367051907 -827.8505136781746 60.58500658060526
  endloop
endfacet
facet normal 4.63080566051558e-07 -8.38267832298516e-06 -0.9999999999647582
  outer loop
    vertex 55.42707083477461 -829.6680744892277 60.585006580605494
    vertex 88.60106367051907 -827.8505136781746 60.58500658060526
    vertex 90.23638356381399 -828.2318167977028 60.58500658060509
  endloop
endfacet
facet normal 4.63080566051558e-07 -8.38267832298516e-06 -0.9999999999647582
  outer loop
    vertex 55.42707083477461 -829.6680744892277 60.585006580605494
    vertex 90.23638356381399 -828.2318167977028 60.58500658060509
    vertex 91.89314052889031 -828.5053484796689 60.5850065806051
  endloop
endfacet
facet normal 4.63080566051558e-07 -8.38267832298516e-06 -0.9999999999647582
  outer loop
    vertex 55.42707083477461 -829.6680744892277 60.585006580605494
    vertex 91.89314052889031 -828.5053484796689 60.5850065806051
    vertex 93.56424007807361 -828.6699374194175 60.5850065806051
  endloop
endfacet
facet normal 4.63080566051558e-07 -8.38267832298516e-06 -0.9999999999647582
  outer loop
    vertex 55.42707083477461 -829.6680744892277 60.585006580605494
    vertex 93.56424007807361 -828.6699374194175 60.5850065806051
    vertex 95.13323908894766 -828.7248788218404 60.585006580605295
  endloop
endfacet
facet normal -0.9659258336633647 0.25881901758127046 -6.844755412173285e-15
  outer loop
    vertex 47.57286842356885 -785.3396793795902 66.93466588818757
    vertex 47.83983792040784 -784.5531294653168 60.58435042729709
    vertex 47.57284395491898 -785.3396683244341 60.58435042729711
  endloop
endfacet
facet normal -0.9238795303788109 0.3826834375133421 -1.0120665760389216e-14
  outer loop
    vertex 47.83983792040784 -784.5531294653168 60.58435042729709
    vertex 47.57286842356885 -785.3396793795902 66.93466588818757
    vertex 47.83986238905771 -784.5531405204728 66.93466588818755
  endloop
endfacet
facet normal -1.001375874102724e-07 0.999999999999647 -8.345042611765638e-07
  outer loop
    vertex 53.70649742050443 -780.6331803159911 66.93466588818734
    vertex 54.80597710232836 -780.6331692608352 60.5843504272968
    vertex 53.70647295185455 -780.6331692608351 60.584350427296975
  endloop
endfacet
facet normal -1.001375874102724e-07 0.999999999999647 -8.345042611765638e-07
  outer loop
    vertex 54.80597710232836 -780.6331692608352 60.5843504272968
    vertex 53.70649742050443 -780.6331803159911 66.93466588818734
    vertex 55.82834281703675 -780.6328157801756 66.93500652230244
  endloop
endfacet
facet normal -1.001375874102724e-07 0.999999999999647 -8.345042611765638e-07
  outer loop
    vertex 54.80597710232836 -780.6331692608352 60.5843504272968
    vertex 55.82834281703675 -780.6328157801756 66.93500652230244
    vertex 55.827876718871444 -780.6332068829744 60.585006580604094
  endloop
endfacet
facet normal -0.7071067372126331 0.7071068251604594 -1.8699951763198223e-14
  outer loop
    vertex 49.216369359969804 -782.4930522554565 66.9346658881875
    vertex 49.84083787764916 -781.9453755499858 60.58435042729702
    vertex 49.216344891319935 -782.4930412003006 60.58435042729703
  endloop
endfacet
facet normal -0.6087614949791221 0.7933532896703613 -2.0981587913183078e-14
  outer loop
    vertex 49.84083787764916 -781.9453755499858 60.58435042729702
    vertex 49.216369359969804 -782.4930522554565 66.9346658881875
    vertex 49.840862346299026 -781.9453866051417 66.93466588818748
  endloop
endfacet
facet normal -0.6087613630383156 0.7933533909121031 -2.0981590589960335e-14
  outer loop
    vertex 49.840862346299026 -781.9453866051417 66.93466588818748
    vertex 50.531472951854546 -781.4839079468039 60.584350427297
    vertex 49.84083787764916 -781.9453755499858 60.58435042729702
  endloop
endfacet
facet normal -0.5000000889377216 0.8660253524362151 -2.2903553112993533e-14
  outer loop
    vertex 50.531472951854546 -781.4839079468039 60.584350427297
    vertex 49.840862346299026 -781.9453866051417 66.93466588818748
    vertex 50.53149742050442 -781.4839190019599 66.93466588818745
  endloop
endfacet
facet normal -0.2588189135378894 0.9659258615416955 -2.55461094296703e-14
  outer loop
    vertex 52.06299648410338 -780.8495513190555 66.93466588818744
    vertex 52.87763163125726 -780.6874943911114 60.584350427296975
    vertex 52.062972015453504 -780.8495402638995 60.58435042729717
  endloop
endfacet
facet normal -0.13171547606629402 0.9912875318718386 -0.0002500401330634462
  outer loop
    vertex 52.87763163125726 -780.6874943911114 60.584350427296975
    vertex 52.06299648410338 -780.8495513190555 66.93466588818744
    vertex 52.877656099907135 -780.6875054462673 66.93466588818744
  endloop
endfacet
facet normal -0.997858923238602 0.06540312923016633 -1.729667951648761e-15
  outer loop
    vertex 47.35649742050442 -786.9831803159911 66.93466588818761
    vertex 47.410798082130874 -786.1543279402379 60.58435042729713
    vertex 47.35647295185455 -786.9831692608351 60.58435042729715
  endloop
endfacet
facet normal -0.9914448547268646 0.1305262427086078 -3.4520128120496485e-15
  outer loop
    vertex 47.410798082130874 -786.1543279402379 60.58435042729713
    vertex 47.35649742050442 -786.9831803159911 66.93466588818761
    vertex 47.41082255078074 -786.1543389953938 66.9346658881876
  endloop
endfacet
facet normal -0.9238795570855319 -0.3826833730376087 1.5908610124409994e-14
  outer loop
    vertex 51.00196255807921 -821.3892791956104 60.58500658060526
    vertex 49.89819441154815 -818.456583622179 66.93532204149537
    vertex 49.89816994289828 -818.456572567023 60.585006580605
  endloop
endfacet
facet normal -0.9469301101650048 -0.3214395222477967 1.3803172049870103e-14
  outer loop
    vertex 49.89819441154815 -818.456583622179 66.93532204149537
    vertex 51.00196255807921 -821.3892791956104 60.58500658060526
    vertex 51.00198702672908 -821.3892902507662 66.93532204149535
  endloop
endfacet
facet normal -0.9807852903963403 -0.195090271777366 9.424231246434512e-15
  outer loop
    vertex 48.27699433584319 -812.4062628335022 60.58500658060482
    vertex 47.766577935455786 -809.314579138864 66.93532204149493
    vertex 47.766553466805824 -809.3145680837081 60.585006580604556
  endloop
endfacet
facet normal -0.9914448553137853 -0.1305262382505051 7.169490869957543e-15
  outer loop
    vertex 47.766577935455786 -809.314579138864 66.93532204149493
    vertex 48.27699433584319 -812.4062628335022 60.58500658060482
    vertex 48.27701880449307 -812.4062738886581 66.93532204149501
  endloop
endfacet
facet normal -3.718374771564313e-21 -0.9999999999984848 -1.7408829581000095e-06
  outer loop
    vertex 158.7425263065423 -850.9498788218402 60.58500658060593
    vertex 95.23873549812386 -850.9498898769963 66.9353220414962
    vertex 95.23871102947399 -850.9498788218402 60.58500658060593
  endloop
endfacet
facet normal -3.718374771564313e-21 -0.9999999999984848 -1.7408829581000095e-06
  outer loop
    vertex 95.23873549812386 -850.9498898769963 66.9353220414962
    vertex 158.7425263065423 -850.9498788218402 60.58500658060593
    vertex 158.74255077519214 -850.9498898769963 66.93532204149594
  endloop
endfacet
facet normal -0.6087614970379178 -0.7933532880905915 2.961274535206863e-14
  outer loop
    vertex 66.0915949784508 -841.054471032686 60.58500658060582
    vertex 63.66935368755066 -839.0665799532286 66.93532204149595
    vertex 63.669329218900785 -839.0665688980728 60.585006580605764
  endloop
endfacet
facet normal -0.6593457517565383 -0.7518398630297581 2.8275714022253964e-14
  outer loop
    vertex 63.66935368755066 -839.0665799532286 66.93532204149595
    vertex 66.0915949784508 -841.054471032686 60.58500658060582
    vertex 66.09161944710067 -841.0544820878418 66.93532204149611
  endloop
endfacet
facet normal -4.5779287322394255e-19 1.0 -3.084569636750238e-14
  outer loop
    vertex 95.24252630654217 -828.7248788218401 66.93500658060502
    vertex 95.13323908894766 -828.7248788218404 60.585006580605295
    vertex 95.13323908894758 -828.7248788218401 66.93500658060512
  endloop
endfacet
facet normal -4.5779287322394255e-19 1.0 -3.084569636750238e-14
  outer loop
    vertex 95.13323908894766 -828.7248788218404 60.585006580605295
    vertex 95.24252630654217 -828.7248788218401 66.93500658060502
    vertex 158.7425263065423 -828.7248788218403 60.585006580605295
  endloop
endfacet
facet normal -4.5779287322394255e-19 1.0 -3.084569636750238e-14
  outer loop
    vertex 158.7425263065423 -828.7248788218403 60.585006580605295
    vertex 95.24252630654217 -828.7248788218401 66.93500658060502
    vertex 158.74252630654217 -828.7248788218401 66.93500658060493
  endloop
endfacet
facet normal -0.7071067229258821 -0.7071068394472083 2.6817598390456963e-14
  outer loop
    vertex 61.382289205135365 -836.9245103091783 66.93532204149588
    vertex 59.240195092435044 -834.6374347716071 60.58500658060564
    vertex 61.3822647364854 -836.9244992540223 60.5850065806057
  endloop
endfacet
facet normal -0.7518398603465503 -0.6593457548161512 2.5244641680649238e-14
  outer loop
    vertex 59.240195092435044 -834.6374347716071 60.58500658060564
    vertex 61.382289205135365 -836.9245103091783 66.93532204149588
    vertex 59.24021956108492 -834.6374458267629 66.935322041496
  endloop
endfacet
facet normal -0.9914448553137853 -0.1305262382505051 7.169490869957543e-15
  outer loop
    vertex 47.766577935455786 -809.314579138864 66.93532204149493
    vertex 47.459412002112224 -806.1961084595741 60.58500658060465
    vertex 47.766553466805824 -809.3145680837081 60.585006580604556
  endloop
endfacet
facet normal -0.9978589259484835 -0.06540308788535172 4.609838279258322e-15
  outer loop
    vertex 47.459412002112224 -806.1961084595741 60.58500658060465
    vertex 47.766577935455786 -809.314579138864 66.93532204149493
    vertex 47.45943647076209 -806.19611951473 66.93532204149484
  endloop
endfacet
facet normal -0.6593458784435973 -0.7518397519281892 2.8275710421581502e-14
  outer loop
    vertex 63.669329218900785 -839.0665688980728 60.585006580605764
    vertex 61.382289205135365 -836.9245103091783 66.93532204149588
    vertex 61.3822647364854 -836.9244992540223 60.5850065806057
  endloop
endfacet
facet normal -0.7071067229258821 -0.7071068394472083 2.6817598390456963e-14
  outer loop
    vertex 61.382289205135365 -836.9245103091783 66.93532204149588
    vertex 63.669329218900785 -839.0665688980728 60.585006580605764
    vertex 63.66935368755066 -839.0665799532286 66.93532204149595
  endloop
endfacet
facet normal -0.5555703052571019 -0.8314695640349865 3.082297397295172e-14
  outer loop
    vertex 68.6386895012801 -842.8796931557331 60.58500658060587
    vertex 66.09161944710067 -841.0544820878418 66.93532204149611
    vertex 66.0915949784508 -841.054471032686 60.58500658060582
  endloop
endfacet
facet normal -0.6087613609795196 -0.7933533924918725 2.961274869174213e-14
  outer loop
    vertex 66.09161944710067 -841.0544820878418 66.93532204149611
    vertex 68.6386895012801 -842.8796931557331 60.58500658060587
    vertex 68.63871396992998 -842.8797042108891 66.93532204149615
  endloop
endfacet
facet normal -0.8968727114481421 -0.4422887512244207 1.794593318883235e-14
  outer loop
    vertex 52.295224527815826 -824.2435262382892 66.93532204149544
    vertex 51.00196255807921 -821.3892791956104 60.58500658060526
    vertex 52.29520005916595 -824.2435151831334 60.58500658060534
  endloop
endfacet
facet normal -0.9238795570855319 -0.3826833730376087 1.5908610124409994e-14
  outer loop
    vertex 51.00196255807921 -821.3892791956104 60.58500658060526
    vertex 52.295224527815826 -824.2435262382892 66.93532204149544
    vertex 51.00198702672908 -821.3892902507662 66.93532204149535
  endloop
endfacet
facet normal -0.49999991106227437 0.8660254551326526 -2.2903555829971065e-14
  outer loop
    vertex 50.53149742050442 -781.4839190019599 66.93466588818745
    vertex 51.27643315633626 -781.1165342293884 60.58435042729717
    vertex 50.531472951854546 -781.4839079468039 60.584350427297
  endloop
endfacet
facet normal -0.3826835436758053 0.923879486404871 -2.4433931760105766e-14
  outer loop
    vertex 51.27643315633626 -781.1165342293884 60.58435042729717
    vertex 50.53149742050442 -781.4839190019599 66.93466588818745
    vertex 51.276457624986136 -781.1165452845445 66.93466588818744
  endloop
endfacet
facet normal -0.9659258118472257 -0.25881909900020567 1.1638622589984229e-14
  outer loop
    vertex 48.98857329170855 -815.4579646525481 66.93532204149518
    vertex 48.27699433584319 -812.4062628335022 60.58500658060482
    vertex 48.98854882305867 -815.4579535973922 60.58500658060491
  endloop
endfacet
facet normal -0.9807852903963403 -0.195090271777366 9.424231246434512e-15
  outer loop
    vertex 48.27699433584319 -812.4062628335022 60.58500658060482
    vertex 48.98857329170855 -815.4579646525481 66.93532204149518
    vertex 48.27701880449307 -812.4062738886581 66.93532204149501
  endloop
endfacet
facet normal 0.766053214899298 0.6427771539555138 -4.790928676776738e-05
  outer loop
    vertex 55.827876718871444 -780.6332068829744 60.585006580604094
    vertex 70.15630638170063 -797.7091644098846 66.9350065806035
    vertex 70.156306381701 -797.7091644098849 60.5850065806044
  endloop
endfacet
facet normal 0.766053214899298 0.6427771539555138 -4.790928676776738e-05
  outer loop
    vertex 70.15630638170063 -797.7091644098846 66.9350065806035
    vertex 55.827876718871444 -780.6332068829744 60.585006580604094
    vertex 55.82834281703675 -780.6328157801756 66.93500652230244
  endloop
endfacet
facet normal -0.1316392012540245 0.9912976636830665 -0.0002503391633474221
  outer loop
    vertex 52.877656099907135 -780.6875054462673 66.93466588818744
    vertex 53.70647295185455 -780.6331692608351 60.584350427296975
    vertex 52.87763163125726 -780.6874943911114 60.584350427296975
  endloop
endfacet
facet normal -0.06779683188781896 0.9976990230203241 -0.0004990493619383247
  outer loop
    vertex 53.70647295185455 -780.6331692608351 60.584350427296975
    vertex 52.877656099907135 -780.6875054462673 66.93466588818744
    vertex 53.44104379333876 -780.6335488935368 66.93677878795314
  endloop
endfacet
facet normal -0.06779683188781896 0.9976990230203241 -0.0004990493619383247
  outer loop
    vertex 53.70647295185455 -780.6331692608351 60.584350427296975
    vertex 53.44104379333876 -780.6335488935368 66.93677878795314
    vertex 53.70649742050443 -780.6331803159911 66.93466588818734
  endloop
endfacet
facet normal -0.7933532930346986 -0.6087614905946332 2.3563591484651458e-14
  outer loop
    vertex 57.25231742647178 -832.2151800672128 66.93532204149575
    vertex 55.42707083477461 -829.6680744892277 60.585006580605494
    vertex 57.25229295782181 -832.215169012057 60.585006580605565
  endloop
endfacet
facet normal -0.8314696538261002 -0.5555701708752057 2.1781630186600134e-14
  outer loop
    vertex 55.42707083477461 -829.6680744892277 60.585006580605494
    vertex 57.25231742647178 -832.2151800672128 66.93532204149575
    vertex 55.42709530342449 -829.6680855443835 66.93532204149568
  endloop
endfacet
facet normal -0.8660253680177122 -0.5000000619497823 1.9906404927218094e-14
  outer loop
    vertex 53.772369073287386 -827.0070693080588 66.93532204149561
    vertex 52.29520005916595 -824.2435151831334 60.58500658060534
    vertex 53.77234460463742 -827.007058252903 60.585006580605416
  endloop
endfacet
facet normal -0.8968727716172353 -0.44228862921356954 1.7945929031074818e-14
  outer loop
    vertex 52.29520005916595 -824.2435151831334 60.58500658060534
    vertex 53.772369073287386 -827.0070693080588 66.93532204149561
    vertex 52.295224527815826 -824.2435262382892 66.93532204149544
  endloop
endfacet
facet normal -0.8660253950631407 0.5000000151057312 -1.3223605475475473e-14
  outer loop
    vertex 48.20723610647326 -783.8081803159911 66.93466588818752
    vertex 48.668679241005215 -783.1175341866298 60.584350427297224
    vertex 48.20721163782339 -783.8081692608351 60.58435042729707
  endloop
endfacet
facet normal -0.7933533647385786 0.6087613971483212 -1.60990005432296e-14
  outer loop
    vertex 48.668679241005215 -783.1175341866298 60.584350427297224
    vertex 48.20723610647326 -783.8081803159911 66.93466588818752
    vertex 48.66870370965509 -783.1175452417857 66.9346658881875
  endloop
endfacet
facet normal -0.7933533647385786 0.6087613971483212 -1.60990005432296e-14
  outer loop
    vertex 48.668679241005215 -783.1175341866298 60.584350427297224
    vertex 49.216369359969804 -782.4930522554565 66.9346658881875
    vertex 49.216344891319935 -782.4930412003006 60.58435042729703
  endloop
endfacet
facet normal -0.7071067372126331 0.7071068251604594 -1.8699951763198223e-14
  outer loop
    vertex 49.216369359969804 -782.4930522554565 66.9346658881875
    vertex 48.668679241005215 -783.1175341866298 60.584350427297224
    vertex 48.66870370965509 -783.1175452417857 66.9346658881875
  endloop
endfacet
facet normal -0.9469301101650048 -0.3214395222477967 1.3803172049870103e-14
  outer loop
    vertex 49.89819441154815 -818.456583622179 66.93532204149537
    vertex 48.98854882305867 -815.4579535973922 60.58500658060491
    vertex 49.89816994289828 -818.456572567023 60.585006580605
  endloop
endfacet
facet normal -0.9659258407309085 -0.2588189912048338 1.163861885407325e-14
  outer loop
    vertex 48.98854882305867 -815.4579535973922 60.58500658060491
    vertex 49.89819441154815 -818.456583622179 66.93532204149537
    vertex 48.98857329170855 -815.4579646525481 66.93532204149518
  endloop
endfacet
facet normal -0.8314695707789905 -0.5555702951639884 2.1781634365905932e-14
  outer loop
    vertex 55.42709530342449 -829.6680855443835 66.93532204149568
    vertex 53.77234460463742 -827.007058252903 60.585006580605416
    vertex 55.42707083477461 -829.6680744892277 60.585006580605494
  endloop
endfacet
facet normal -0.866025439551162 -0.49999993805021287 1.9906400731991656e-14
  outer loop
    vertex 53.77234460463742 -827.007058252903 60.585006580605416
    vertex 55.42709530342449 -829.6680855443835 66.93532204149568
    vertex 53.772369073287386 -827.0070693080588 66.93532204149561
  endloop
endfacet
facet normal -0.9914448680207494 0.13052614173152788 -3.4520101414560095e-15
  outer loop
    vertex 47.41082255078074 -786.1543389953938 66.9346658881876
    vertex 47.57284395491898 -785.3396683244341 60.58435042729711
    vertex 47.410798082130874 -786.1543279402379 60.58435042729713
  endloop
endfacet
facet normal -0.9659258189147863 0.25881907262371473 -6.8447568676631094e-15
  outer loop
    vertex 47.57284395491898 -785.3396683244341 60.58435042729711
    vertex 47.41082255078074 -786.1543389953938 66.9346658881876
    vertex 47.57286842356885 -785.3396793795902 66.93466588818757
  endloop
endfacet
facet normal -0.7518397546114008 -0.6593458753839814 2.5244645669943707e-14
  outer loop
    vertex 59.24021956108492 -834.6374458267629 66.935322041496
    vertex 57.25229295782181 -832.215169012057 60.585006580605565
    vertex 59.240195092435044 -834.6374347716071 60.58500658060564
  endloop
endfacet
facet normal -0.7933533875477707 -0.6087613674227995 2.3563587374383358e-14
  outer loop
    vertex 57.25229295782181 -832.215169012057 60.585006580605565
    vertex 59.24021956108492 -834.6374458267629 66.935322041496
    vertex 57.25231742647178 -832.2151800672128 66.93532204149575
  endloop
endfacet
facet normal 1.0 0.0 0.0
  outer loop
    vertex 158.74252630654217 -828.7248788218401 66.93500658060493
    vertex 158.7425263065423 -850.9498788218402 60.58500658060593
    vertex 158.7425263065423 -828.7248788218403 60.585006580605295
  endloop
endfacet
facet normal 1.0 0.0 0.0
  outer loop
    vertex 158.7425263065423 -850.9498788218402 60.58500658060593
    vertex 158.74252630654217 -828.7248788218401 66.93500658060493
    vertex 158.74255077519214 -850.9498898769963 66.93532204149594
  endloop
endfacet
facet normal -0.13052627580470705 -0.9914448503696782 3.538217006192352e-14
  outer loop
    vertex 88.99219590679958 -850.5402105237018 60.58500658060609
    vertex 85.90052562565538 -850.0297807098206 66.93532204149626
    vertex 85.90050115700551 -850.0297696546645 60.58500658060607
  endloop
endfacet
facet normal -0.19509023787299176 -0.9807852971403374 3.5171800476477554e-14
  outer loop
    vertex 85.90052562565538 -850.0297807098206 66.93532204149626
    vertex 88.99219590679958 -850.5402105237018 60.58500658060609
    vertex 88.99222037544955 -850.5402215788578 66.93532204149638
  endloop
endfacet
facet normal 0.9738769792773349 0.2270762630343679 -1.144098923633578e-14
  outer loop
    vertex 70.07494719280491 -808.0703804266935 66.93500658060444
    vertex 70.45625031233325 -809.7057003199888 60.58500658060457
    vertex 70.07494719280501 -808.0703804266938 60.585006580604514
  endloop
endfacet
facet normal 0.9738769792773349 0.2270762630343679 -1.144098923633578e-14
  outer loop
    vertex 70.45625031233325 -809.7057003199888 60.58500658060457
    vertex 70.07494719280491 -808.0703804266935 66.93500658060444
    vertex 70.45625031233317 -809.7057003199884 66.93500658060448
  endloop
endfacet
facet normal 0.9359059267573222 0.3522500479212426 -1.570227938480339e-14
  outer loop
    vertex 70.94369207092694 -811.31258045066 66.93500658060444
    vertex 71.53518516814256 -812.8841399112962 60.58500658060466
    vertex 70.94369207092694 -811.3125804506603 60.58500658060461
  endloop
endfacet
facet normal 0.9359059267573222 0.3522500479212426 -1.570227938480339e-14
  outer loop
    vertex 71.53518516814256 -812.8841399112962 60.58500658060466
    vertex 70.94369207092694 -811.31258045066 66.93500658060444
    vertex 71.53518516814248 -812.884139911296 66.93500658060448
  endloop
endfacet
facet normal 0.9807852804032056 -0.19509032201625423 6.073036486157031e-14
  outer loop
    vertex 70.07494719280537 -798.0580949412373 60.58500658060478
    vertex 69.80141551083874 -799.7148519063132 66.93500658060401
    vertex 69.80141551083919 -799.7148519063137 60.58500658060464
  endloop
endfacet
facet normal 0.9914448613738107 -0.1305261922200496 5.845729939446774e-14
  outer loop
    vertex 69.80141551083874 -799.7148519063132 66.93500658060401
    vertex 70.07494719280537 -798.0580949412373 60.58500658060478
    vertex 70.07494719280491 -798.0580949412368 66.93500658060405
  endloop
endfacet
facet normal 0.9569403357322093 0.2902846772544609 -1.3598406422043151e-14
  outer loop
    vertex 70.45625031233317 -809.7057003199884 66.93500658060448
    vertex 70.94369207092694 -811.3125804506603 60.58500658060461
    vertex 70.45625031233325 -809.7057003199888 60.58500658060457
  endloop
endfacet
facet normal 0.9569403357322093 0.2902846772544609 -1.3598406422043151e-14
  outer loop
    vertex 70.94369207092694 -811.3125804506603 60.58500658060461
    vertex 70.45625031233317 -809.7057003199884 66.93500658060448
    vertex 70.94369207092694 -811.31258045066 66.93500658060444
  endloop
endfacet
facet normal -0.03329080713006774 -0.9994457074588506 -1.6451137077687228e-06
  outer loop
    vertex 95.13323908894766 -850.9498788218402 60.58500658060593
    vertex 92.11067999958348 -850.8473630435514 66.93532204149638
    vertex 92.11065553093361 -850.8473519883955 60.58500658060609
  endloop
endfacet
facet normal -0.06568952570499 -0.9978401105447587 -8.229645544429674e-07
  outer loop
    vertex 92.11067999958348 -850.8473630435514 66.93532204149638
    vertex 95.13323908894766 -850.9498788218402 60.58500658060593
    vertex 95.13323908894758 -850.9498898769963 66.93500658060574
  endloop
endfacet
facet normal -0.03329080713006774 -0.9994457074588506 -1.6451137077687228e-06
  outer loop
    vertex 95.13323908894758 -850.9498898769963 66.93500658060574
    vertex 95.13323908894766 -850.9498788218402 60.58500658060593
    vertex 95.23873549812386 -850.9498898769963 66.9353220414962
  endloop
endfacet
facet normal -0.03329080713006774 -0.9994457074588506 -1.6451137077687228e-06
  outer loop
    vertex 95.23873549812386 -850.9498898769963 66.9353220414962
    vertex 95.13323908894766 -850.9498788218402 60.58500658060593
    vertex 95.23871102947399 -850.9498788218402 60.58500658060593
  endloop
endfacet
facet normal 0.7730104533627403 0.6343932841636414 -2.531967769692863e-14
  outer loop
    vertex 74.88457094579451 -818.6854462523378 66.93500658060474
    vertex 75.9498348136553 -819.9834740310079 60.58500658060486
    vertex 74.88457094579461 -818.6854462523381 60.58500658060482
  endloop
endfacet
facet normal 0.7730104533627403 0.6343932841636414 -2.531967769692863e-14
  outer loop
    vertex 75.9498348136553 -819.9834740310079 60.58500658060486
    vertex 74.88457094579451 -818.6854462523378 66.93500658060474
    vertex 75.94983481365522 -819.9834740310076 66.93500658060478
  endloop
endfacet
facet normal 0.4127070298043961 0.9108638249211752 -3.3511489880052094e-14
  outer loop
    vertex 85.42262407921143 -826.7715788223651 66.93500658060496
    vertex 83.89311494749175 -826.0785672507778 60.58500658060503
    vertex 83.89311494749175 -826.0785672507775 66.93500658060495
  endloop
endfacet
facet normal 0.4127070298043961 0.9108638249211752 -3.3511489880052094e-14
  outer loop
    vertex 83.89311494749175 -826.0785672507778 60.58500658060503
    vertex 85.42262407921143 -826.7715788223651 66.93500658060496
    vertex 85.42262407921153 -826.7715788223651 60.585006580605054
  endloop
endfacet
facet normal 0.881921264348356 0.4713967368259957 -1.9801870534522692e-14
  outer loop
    vertex 72.22819673972997 -814.413649043016 60.585006580604876
    vertex 73.0197592037465 -815.8945582529026 66.93500658060456
    vertex 73.0197592037466 -815.8945582529029 60.58500658060474
  endloop
endfacet
facet normal 0.881921264348356 0.4713967368259957 -1.9801870534522692e-14
  outer loop
    vertex 73.0197592037465 -815.8945582529026 66.93500658060456
    vertex 72.22819673972997 -814.413649043016 60.585006580604876
    vertex 72.22819673972988 -814.4136490430158 66.93500658060462
  endloop
endfacet
facet normal 0.9108638249211761 0.4127070298043943 -1.7737097930431623e-14
  outer loop
    vertex 71.53518516814248 -812.884139911296 66.93500658060448
    vertex 72.22819673972997 -814.413649043016 60.585006580604876
    vertex 71.53518516814256 -812.8841399112962 60.58500658060466
  endloop
endfacet
facet normal 0.9108638249211761 0.4127070298043943 -1.7737097930431623e-14
  outer loop
    vertex 72.22819673972997 -814.413649043016 60.585006580604876
    vertex 71.53518516814248 -812.884139911296 66.93500658060448
    vertex 72.22819673972988 -814.4136490430158 66.93500658060462
  endloop
endfacet
facet normal -0.06568861372990976 -0.9978401705812235 -8.229877336150786e-07
  outer loop
    vertex 92.11065553093361 -850.8473519883955 60.58500658060609
    vertex 88.99222037544955 -850.5402215788578 66.93532204149638
    vertex 88.99219590679958 -850.5402105237018 60.58500658060609
  endloop
endfacet
facet normal -0.13052610863538758 -0.9914448723779367 3.538217040896415e-14
  outer loop
    vertex 88.99222037544955 -850.5402215788578 66.93532204149638
    vertex 92.11065553093361 -850.8473519883955 60.58500658060609
    vertex 92.11067999958348 -850.8473630435514 66.93532204149638
  endloop
endfacet
facet normal 0.8492021815265777 0.5280678506503701 -2.180643492078339e-14
  outer loop
    vertex 73.0197592037465 -815.8945582529026 66.93500658060456
    vertex 73.90648296819873 -817.320526060367 60.585006580604784
    vertex 73.0197592037466 -815.8945582529029 60.58500658060474
  endloop
endfacet
facet normal 0.8492021815265777 0.5280678506503701 -2.180643492078339e-14
  outer loop
    vertex 73.90648296819873 -817.320526060367 60.585006580604784
    vertex 73.0197592037465 -815.8945582529026 66.93500658060456
    vertex 73.90648296819863 -817.3205260603667 66.93500658060478
  endloop
endfacet
facet normal 0.47139673682599176 0.8819212643483584 -3.305583149449772e-14
  outer loop
    vertex 83.89311494749175 -826.0785672507775 66.93500658060495
    vertex 82.41220573760484 -825.2870047867611 60.58500658060501
    vertex 82.41220573760475 -825.2870047867609 66.93500658060492
  endloop
endfacet
facet normal 0.47139673682599176 0.8819212643483584 -3.305583149449772e-14
  outer loop
    vertex 82.41220573760484 -825.2870047867611 60.58500658060501
    vertex 83.89311494749175 -826.0785672507775 66.93500658060495
    vertex 83.89311494749175 -826.0785672507778 60.58500658060503
  endloop
endfacet
facet normal 0.1628954733945851 0.9866433320848798 -3.5396742815443396e-14
  outer loop
    vertex 91.89314052889023 -828.5053484796687 66.935006580605
    vertex 90.23638356381399 -828.2318167977028 60.58500658060509
    vertex 90.23638356381399 -828.2318167977024 66.935006580605
  endloop
endfacet
facet normal 0.1628954733945851 0.9866433320848798 -3.5396742815443396e-14
  outer loop
    vertex 90.23638356381399 -828.2318167977028 60.58500658060509
    vertex 91.89314052889023 -828.5053484796687 66.935006580605
    vertex 91.89314052889031 -828.5053484796689 60.5850065806051
  endloop
endfacet
facet normal 0.09801714032956421 0.9951847266721965 -3.558542118128506e-14
  outer loop
    vertex 93.56424007807352 -828.6699374194174 66.93500658060502
    vertex 91.89314052889031 -828.5053484796689 60.5850065806051
    vertex 91.89314052889023 -828.5053484796687 66.935006580605
  endloop
endfacet
facet normal 0.09801714032956421 0.9951847266721965 -3.558542118128506e-14
  outer loop
    vertex 91.89314052889031 -828.5053484796689 60.5850065806051
    vertex 93.56424007807352 -828.6699374194174 66.93500658060502
    vertex 93.56424007807361 -828.6699374194175 60.5850065806051
  endloop
endfacet
facet normal 0.8128466845916148 0.5824776968678029 -2.361354646699247e-14
  outer loop
    vertex 73.90648296819863 -817.3205260603667 66.93500658060478
    vertex 74.88457094579461 -818.6854462523381 60.58500658060482
    vertex 73.90648296819873 -817.320526060367 60.585006580604784
  endloop
endfacet
facet normal 0.8128466845916148 0.5824776968678029 -2.361354646699247e-14
  outer loop
    vertex 74.88457094579461 -818.6854462523381 60.58500658060482
    vertex 73.90648296819863 -817.3205260603667 66.93500658060478
    vertex 74.88457094579451 -818.6854462523378 66.93500658060474
  endloop
endfacet
facet normal -0.1950904061592607 -0.9807852636661172 3.5171799727015846e-14
  outer loop
    vertex 85.90050115700551 -850.0297696546645 60.58500658060607
    vertex 82.84883486176543 -849.318226222605 66.93532204149625
    vertex 82.84881039311554 -849.3182151674491 60.58500658060606
  endloop
endfacet
facet normal -0.25881896115399267 -0.9659258487830048 3.481081949906661e-14
  outer loop
    vertex 82.84883486176543 -849.318226222605 66.93532204149625
    vertex 85.90050115700551 -850.0297696546645 60.58500658060607
    vertex 85.90052562565538 -850.0297807098206 66.93532204149626
  endloop
endfacet
facet normal 0.9738769792772805 -0.22707626303460157 6.115708572034282e-14
  outer loop
    vertex 70.15630638170063 -797.7091644098846 66.9350065806035
    vertex 70.07494719280537 -798.0580949412373 60.58500658060478
    vertex 70.156306381701 -797.7091644098849 60.5850065806044
  endloop
endfacet
facet normal 0.9807852804032056 -0.19509032201625423 6.073036486157031e-14
  outer loop
    vertex 70.07494719280537 -798.0580949412373 60.58500658060478
    vertex 70.15630638170063 -797.7091644098846 66.9350065806035
    vertex 70.07494719280491 -798.0580949412368 66.93500658060405
  endloop
endfacet
facet normal 0.9994645874763656 0.03271908282177887 -4.700595836476225e-15
  outer loop
    vertex 69.58188516866733 -803.0642376839652 66.93500658060411
    vertex 69.6368265710902 -804.7425239124342 60.58500658060442
    vertex 69.58188516866741 -803.0642376839654 60.58500658060438
  endloop
endfacet
facet normal 0.9994645874763656 0.03271908282177887 -4.700595836476225e-15
  outer loop
    vertex 69.6368265710902 -804.7425239124342 60.58500658060442
    vertex 69.58188516866733 -803.0642376839652 66.93500658060411
    vertex 69.6368265710902 -804.742523912434 66.93500658060424
  endloop
endfacet
facet normal -0.9978589205287225 -0.06540317057492429 4.609841882309944e-15
  outer loop
    vertex 47.45943647076209 -806.19611951473 66.93532204149484
    vertex 47.35688516866742 -803.0642376839654 60.585006580604556
    vertex 47.459412002112224 -806.1961084595741 60.58500658060465
  endloop
endfacet
facet normal -0.9994645874763658 -0.03271908282177529 3.1847483316100926e-15
  outer loop
    vertex 47.35688516866742 -803.0642376839654 60.585006580604556
    vertex 47.45943647076209 -806.19611951473 66.93532204149484
    vertex 47.35690963731729 -803.0642487391214 66.93532204149484
  endloop
endfacet
facet normal 0.2902846772544605 0.9569403357322095 -3.456612023702817e-14
  outer loop
    vertex 88.60106367051898 -827.8505136781744 66.93500658060508
    vertex 86.9941835398475 -827.3630719195808 60.585006580605246
    vertex 86.9941835398474 -827.3630719195805 66.93500658060506
  endloop
endfacet
facet normal 0.2902846772544605 0.9569403357322095 -3.456612023702817e-14
  outer loop
    vertex 86.9941835398475 -827.3630719195808 60.585006580605246
    vertex 88.60106367051898 -827.8505136781744 66.93500658060508
    vertex 88.60106367051907 -827.8505136781746 60.58500658060526
  endloop
endfacet
facet normal 0.7298640726978336 0.6835923020228736 -2.6910716213462125e-14
  outer loop
    vertex 75.94983481365522 -819.9834740310076 66.93500658060478
    vertex 77.09771294835646 -821.2090510421511 60.5850065806049
    vertex 75.9498348136553 -819.9834740310079 60.58500658060486
  endloop
endfacet
facet normal 0.7298640726978336 0.6835923020228736 -2.6910716213462125e-14
  outer loop
    vertex 77.09771294835646 -821.2090510421511 60.5850065806049
    vertex 75.94983481365522 -819.9834740310076 66.93500658060478
    vertex 77.09771294835646 -821.209051042151 66.9350065806048
  endloop
endfacet
facet normal 0.6835923020228702 0.7298640726978367 -2.840120609046705e-14
  outer loop
    vertex 78.32328995949979 -822.3569291768522 66.93500658060483
    vertex 77.09771294835646 -821.2090510421511 60.5850065806049
    vertex 77.09771294835646 -821.209051042151 66.9350065806048
  endloop
endfacet
facet normal 0.6835923020228702 0.7298640726978367 -2.840120609046705e-14
  outer loop
    vertex 77.09771294835646 -821.2090510421511 60.5850065806049
    vertex 78.32328995949979 -822.3569291768522 66.93500658060483
    vertex 78.32328995949987 -822.3569291768524 60.58500658060493
  endloop
endfacet
facet normal -0.5000000758964283 -0.8660253599656109 3.1901213897555914e-14
  outer loop
    vertex 71.29970573760485 -844.5344193858704 60.58500658060593
    vertex 68.63871396992998 -842.8797042108891 66.93532204149615
    vertex 68.6386895012801 -842.8796931557331 60.58500658060587
  endloop
endfacet
facet normal -0.5555701607821009 -0.8314696605700961 3.082297701287547e-14
  outer loop
    vertex 68.63871396992998 -842.8797042108891 66.93532204149615
    vertex 71.29970573760485 -844.5344193858704 60.58500658060593
    vertex 71.29973020625472 -844.5344304410262 66.93532204149611
  endloop
endfacet
facet normal -0.3826835136913019 -0.9238794988248625 3.364384386101065e-14
  outer loop
    vertex 76.9174847948974 -847.3048014324287 60.58500658060618
    vertex 74.06327327602438 -846.0115749864977 66.93532204149615
    vertex 74.06324880737449 -846.0115639313418 60.585006580605956
  endloop
endfacet
facet normal -0.4422886112756219 -0.8968727804632506 3.284285028011375e-14
  outer loop
    vertex 74.06327327602438 -846.0115749864977 66.93532204149615
    vertex 76.9174847948974 -847.3048014324287 60.58500658060618
    vertex 76.91750926354727 -847.3048124875845 66.93532204149626
  endloop
endfacet
facet normal 0.22707626303437428 0.9738769792773334 -3.505453959675382e-14
  outer loop
    vertex 90.23638356381399 -828.2318167977024 66.935006580605
    vertex 88.60106367051907 -827.8505136781746 60.58500658060526
    vertex 88.60106367051898 -827.8505136781744 66.93500658060508
  endloop
endfacet
facet normal 0.22707626303437428 0.9738769792773334 -3.505453959675382e-14
  outer loop
    vertex 88.60106367051907 -827.8505136781746 60.58500658060526
    vertex 90.23638356381399 -828.2318167977024 66.935006580605
    vertex 90.23638356381399 -828.2318167977028 60.58500658060509
  endloop
endfacet
facet normal 0.9914448613738107 -0.1305261922200496 5.845729939446774e-14
  outer loop
    vertex 69.80141551083874 -799.7148519063132 66.93500658060401
    vertex 69.63682657109065 -801.3859514554969 60.585006580604876
    vertex 69.80141551083919 -799.7148519063137 60.58500658060464
  endloop
endfacet
facet normal 0.9978589232385999 -0.06540312923019818 4.155478019202423e-14
  outer loop
    vertex 69.63682657109065 -801.3859514554969 60.585006580604876
    vertex 69.80141551083874 -799.7148519063132 66.93500658060401
    vertex 69.6368265710902 -801.3859514554965 66.93500658060415
  endloop
endfacet
facet normal 0.35225004792123676 0.9359059267573245 -3.392773287785482e-14
  outer loop
    vertex 86.9941835398474 -827.3630719195805 66.93500658060506
    vertex 85.42262407921153 -826.7715788223651 60.585006580605054
    vertex 85.42262407921143 -826.7715788223651 66.93500658060496
  endloop
endfacet
facet normal 0.35225004792123676 0.9359059267573245 -3.392773287785482e-14
  outer loop
    vertex 85.42262407921153 -826.7715788223651 60.585006580605054
    vertex 86.9941835398474 -827.3630719195805 66.93500658060506
    vertex 86.9941835398475 -827.3630719195808 60.585006580605246
  endloop
endfacet
facet normal 0.6343932841636472 0.7730104533627356 -2.9759645952292303e-14
  outer loop
    vertex 79.62131773816958 -823.4221930447129 66.93500658060486
    vertex 78.32328995949987 -822.3569291768524 60.58500658060493
    vertex 78.32328995949979 -822.3569291768522 66.93500658060483
  endloop
endfacet
facet normal 0.6343932841636472 0.7730104533627356 -2.9759645952292303e-14
  outer loop
    vertex 78.32328995949987 -822.3569291768524 60.58500658060493
    vertex 79.62131773816958 -823.4221930447129 66.93500658060486
    vertex 79.62131773816958 -823.4221930447133 60.585006580604954
  endloop
endfacet
facet normal 0.5280678506503705 0.8492021815265772 -3.2093132698604006e-14
  outer loop
    vertex 82.41220573760475 -825.2870047867609 66.93500658060492
    vertex 80.9862379301407 -824.400281022309 60.58500658060517
    vertex 80.9862379301407 -824.4002810223088 66.93500658060499
  endloop
endfacet
facet normal 0.5280678506503705 0.8492021815265772 -3.2093132698604006e-14
  outer loop
    vertex 80.9862379301407 -824.400281022309 60.58500658060517
    vertex 82.41220573760475 -825.2870047867609 66.93500658060492
    vertex 82.41220573760484 -825.2870047867611 60.58500658060501
  endloop
endfacet
facet normal 0.0349954008701891 0.9993874733645279 -3.562269265486989e-14
  outer loop
    vertex 95.13323908894758 -828.7248788218401 66.93500658060512
    vertex 93.56424007807361 -828.6699374194175 60.5850065806051
    vertex 93.56424007807352 -828.6699374194174 66.93500658060502
  endloop
endfacet
facet normal 0.0349954008701891 0.9993874733645279 -3.562269265486989e-14
  outer loop
    vertex 93.56424007807361 -828.6699374194175 60.5850065806051
    vertex 95.13323908894758 -828.7248788218401 66.93500658060512
    vertex 95.13323908894766 -828.7248788218404 60.585006580605295
  endloop
endfacet
facet normal 0.5824776968678014 0.8128466845916158 -3.09926138876577e-14
  outer loop
    vertex 80.9862379301407 -824.4002810223088 66.93500658060499
    vertex 79.62131773816958 -823.4221930447133 60.585006580604954
    vertex 79.62131773816958 -823.4221930447129 66.93500658060486
  endloop
endfacet
facet normal 0.5824776968678014 0.8128466845916158 -3.09926138876577e-14
  outer loop
    vertex 79.62131773816958 -823.4221930447133 60.585006580604954
    vertex 80.9862379301407 -824.4002810223088 66.93500658060499
    vertex 80.9862379301407 -824.400281022309 60.58500658060517
  endloop
endfacet
facet normal 0.9978589232385999 -0.06540312923019818 4.155478019202423e-14
  outer loop
    vertex 69.63682657109065 -801.3859514554969 60.585006580604876
    vertex 69.58188516866733 -803.0642376839652 66.93500658060411
    vertex 69.58188516866741 -803.0642376839654 60.58500658060438
  endloop
endfacet
facet normal 0.9994645874763616 -0.03271908282190203 2.6451673643013277e-14
  outer loop
    vertex 69.58188516866733 -803.0642376839652 66.93500658060411
    vertex 69.63682657109065 -801.3859514554969 60.585006580604876
    vertex 69.6368265710902 -801.3859514554965 66.93500658060415
  endloop
endfacet
facet normal -0.3214395483073267 -0.9469301013189843 3.430077168605012e-14
  outer loop
    vertex 79.85019142348469 -848.4085940476095 60.58500658060603
    vertex 76.91750926354727 -847.3048124875845 66.93532204149626
    vertex 76.9174847948974 -847.3048014324287 60.58500658060618
  endloop
endfacet
facet normal -0.38268335103887136 -0.9238795661977054 3.3643845823247306e-14
  outer loop
    vertex 76.91750926354727 -847.3048124875845 66.93532204149626
    vertex 79.85019142348469 -848.4085940476095 60.58500658060603
    vertex 79.85021589213457 -848.4086051027654 66.9353220414963
  endloop
endfacet
facet normal -0.4422887691623795 -0.8968727026021182 3.284284793485134e-14
  outer loop
    vertex 74.06324880737449 -846.0115639313418 60.585006580605956
    vertex 71.29973020625472 -844.5344304410262 66.93532204149611
    vertex 71.29970573760485 -844.5344193858704 60.58500658060593
  endloop
endfacet
facet normal -0.49999992410357114 -0.866025447603258 3.190121660410793e-14
  outer loop
    vertex 71.29973020625472 -844.5344304410262 66.93532204149611
    vertex 74.06324880737449 -846.0115639313418 60.585006580605956
    vertex 74.06327327602438 -846.0115749864977 66.93532204149615
  endloop
endfacet
facet normal -0.2588191290510473 -0.9659258037951245 3.4810818341615353e-14
  outer loop
    vertex 82.84881039311554 -849.3182151674491 60.58500658060606
    vertex 79.85021589213457 -848.4086051027654 66.9353220414963
    vertex 79.85019142348469 -848.4085940476095 60.58500658060603
  endloop
endfacet
facet normal -0.32143938229899127 -0.9469301576712208 3.430077325007856e-14
  outer loop
    vertex 79.85021589213457 -848.4086051027654 66.9353220414963
    vertex 82.84881039311554 -849.3182151674491 60.58500658060606
    vertex 82.84883486176543 -849.318226222605 66.93532204149625
  endloop
endfacet
facet normal 0.9866433320848784 0.16289547339459212 -9.226843872215154e-15
  outer loop
    vertex 69.80141551083874 -806.4136234616172 66.9350065806043
    vertex 70.07494719280501 -808.0703804266938 60.585006580604514
    vertex 69.80141551083882 -806.4136234616175 60.58500658060447
  endloop
endfacet
facet normal 0.9866433320848784 0.16289547339459212 -9.226843872215154e-15
  outer loop
    vertex 70.07494719280501 -808.0703804266938 60.585006580604514
    vertex 69.80141551083874 -806.4136234616172 66.9350065806043
    vertex 70.07494719280491 -808.0703804266935 66.93500658060444
  endloop
endfacet
facet normal 0.9951847266721965 0.09801714032956438 -6.978787306576608e-15
  outer loop
    vertex 69.6368265710902 -804.742523912434 66.93500658060424
    vertex 69.80141551083882 -806.4136234616175 60.58500658060447
    vertex 69.6368265710902 -804.7425239124342 60.58500658060442
  endloop
endfacet
facet normal 0.9951847266721965 0.09801714032956438 -6.978787306576608e-15
  outer loop
    vertex 69.80141551083882 -806.4136234616175 60.58500658060447
    vertex 69.6368265710902 -804.742523912434 66.93500658060424
    vertex 69.80141551083874 -806.4136234616172 66.9350065806043
  endloop
endfacet
facet normal 3.936764109253867e-06 8.628784426598334e-06 0.9999999999550231
  outer loop
    vertex 53.70649742050443 -780.6331803159911 66.93466588818734
    vertex 70.15630638170063 -797.7091644098846 66.9350065806035
    vertex 55.82834281703675 -780.6328157801756 66.93500652230244
  endloop
endfacet
facet normal 3.936764109253867e-06 8.628784426598334e-06 0.9999999999550231
  outer loop
    vertex 70.15630638170063 -797.7091644098846 66.9350065806035
    vertex 53.70649742050443 -780.6331803159911 66.93466588818734
    vertex 53.44104379333876 -780.6335488935368 66.93677878795314
  endloop
endfacet
facet normal 3.936764109253867e-06 8.628784426598334e-06 0.9999999999550231
  outer loop
    vertex 70.15630638170063 -797.7091644098846 66.9350065806035
    vertex 53.44104379333876 -780.6335488935368 66.93677878795314
    vertex 52.877656099907135 -780.6875054462673 66.93466588818744
  endloop
endfacet
facet normal 3.936764109253867e-06 8.628784426598334e-06 0.9999999999550231
  outer loop
    vertex 70.15630638170063 -797.7091644098846 66.9350065806035
    vertex 52.877656099907135 -780.6875054462673 66.93466588818744
    vertex 52.06299648410338 -780.8495513190555 66.93466588818744
  endloop
endfacet
facet normal 3.936764109253867e-06 8.628784426598334e-06 0.9999999999550231
  outer loop
    vertex 70.15630638170063 -797.7091644098846 66.9350065806035
    vertex 52.06299648410338 -780.8495513190555 66.93466588818744
    vertex 51.276457624986136 -781.1165452845445 66.93466588818744
  endloop
endfacet
facet normal 3.936764109253867e-06 8.628784426598334e-06 0.9999999999550231
  outer loop
    vertex 70.15630638170063 -797.7091644098846 66.9350065806035
    vertex 51.276457624986136 -781.1165452845445 66.93466588818744
    vertex 50.53149742050442 -781.4839190019599 66.93466588818745
  endloop
endfacet
facet normal 3.936764109253867e-06 8.628784426598334e-06 0.9999999999550231
  outer loop
    vertex 70.15630638170063 -797.7091644098846 66.9350065806035
    vertex 50.53149742050442 -781.4839190019599 66.93466588818745
    vertex 49.840862346299026 -781.9453866051417 66.93466588818748
  endloop
endfacet
facet normal 3.936764109253867e-06 8.628784426598334e-06 0.9999999999550231
  outer loop
    vertex 70.15630638170063 -797.7091644098846 66.9350065806035
    vertex 49.840862346299026 -781.9453866051417 66.93466588818748
    vertex 49.216369359969804 -782.4930522554565 66.9346658881875
  endloop
endfacet
facet normal 3.936764109253867e-06 8.628784426598334e-06 0.9999999999550231
  outer loop
    vertex 70.15630638170063 -797.7091644098846 66.9350065806035
    vertex 49.216369359969804 -782.4930522554565 66.9346658881875
    vertex 48.66870370965509 -783.1175452417857 66.9346658881875
  endloop
endfacet
facet normal 3.936764109253867e-06 8.628784426598334e-06 0.9999999999550231
  outer loop
    vertex 70.15630638170063 -797.7091644098846 66.9350065806035
    vertex 48.66870370965509 -783.1175452417857 66.9346658881875
    vertex 48.20723610647326 -783.8081803159911 66.93466588818752
  endloop
endfacet
facet normal 3.936764109253867e-06 8.628784426598334e-06 0.9999999999550231
  outer loop
    vertex 70.15630638170063 -797.7091644098846 66.9350065806035
    vertex 48.20723610647326 -783.8081803159911 66.93466588818752
    vertex 47.83986238905771 -784.5531405204728 66.93466588818755
  endloop
endfacet
facet normal 3.936764109253867e-06 8.628784426598334e-06 0.9999999999550231
  outer loop
    vertex 70.15630638170063 -797.7091644098846 66.9350065806035
    vertex 47.83986238905771 -784.5531405204728 66.93466588818755
    vertex 47.57286842356885 -785.3396793795902 66.93466588818757
  endloop
endfacet
facet normal 3.936764109253867e-06 8.628784426598334e-06 0.9999999999550231
  outer loop
    vertex 70.15630638170063 -797.7091644098846 66.9350065806035
    vertex 47.57286842356885 -785.3396793795902 66.93466588818757
    vertex 47.41082255078074 -786.1543389953938 66.9346658881876
  endloop
endfacet
facet normal 3.936764109253867e-06 8.628784426598334e-06 0.9999999999550231
  outer loop
    vertex 70.15630638170063 -797.7091644098846 66.9350065806035
    vertex 47.41082255078074 -786.1543389953938 66.9346658881876
    vertex 47.35649742050442 -786.9831803159911 66.93466588818761
  endloop
endfacet
facet normal 3.936764109253867e-06 8.628784426598334e-06 0.9999999999550231
  outer loop
    vertex 70.15630638170063 -797.7091644098846 66.9350065806035
    vertex 47.35649742050442 -786.9831803159911 66.93466588818761
    vertex 47.35690963731729 -803.0642487391214 66.93532204149484
  endloop
endfacet
facet normal 3.936764109253867e-06 8.628784426598334e-06 0.9999999999550231
  outer loop
    vertex 70.15630638170063 -797.7091644098846 66.9350065806035
    vertex 47.35690963731729 -803.0642487391214 66.93532204149484
    vertex 70.07494719280491 -798.0580949412368 66.93500658060405
  endloop
endfacet
facet normal 3.936764109253867e-06 8.628784426598334e-06 0.9999999999550231
  outer loop
    vertex 70.07494719280491 -798.0580949412368 66.93500658060405
    vertex 47.35690963731729 -803.0642487391214 66.93532204149484
    vertex 69.80141551083874 -799.7148519063132 66.93500658060401
  endloop
endfacet
facet normal 3.936764109253867e-06 8.628784426598334e-06 0.9999999999550231
  outer loop
    vertex 69.80141551083874 -799.7148519063132 66.93500658060401
    vertex 47.35690963731729 -803.0642487391214 66.93532204149484
    vertex 69.6368265710902 -801.3859514554965 66.93500658060415
  endloop
endfacet
facet normal 3.936764109253867e-06 8.628784426598334e-06 0.9999999999550231
  outer loop
    vertex 69.6368265710902 -801.3859514554965 66.93500658060415
    vertex 47.35690963731729 -803.0642487391214 66.93532204149484
    vertex 69.58188516866733 -803.0642376839652 66.93500658060411
  endloop
endfacet
facet normal 3.936764109253867e-06 8.628784426598334e-06 0.9999999999550231
  outer loop
    vertex 69.58188516866733 -803.0642376839652 66.93500658060411
    vertex 47.35690963731729 -803.0642487391214 66.93532204149484
    vertex 69.6368265710902 -804.742523912434 66.93500658060424
  endloop
endfacet
facet normal 3.936764109253867e-06 8.628784426598334e-06 0.9999999999550231
  outer loop
    vertex 69.6368265710902 -804.742523912434 66.93500658060424
    vertex 47.35690963731729 -803.0642487391214 66.93532204149484
    vertex 47.45943647076209 -806.19611951473 66.93532204149484
  endloop
endfacet
facet normal 3.936764109253867e-06 8.628784426598334e-06 0.9999999999550231
  outer loop
    vertex 69.6368265710902 -804.742523912434 66.93500658060424
    vertex 47.45943647076209 -806.19611951473 66.93532204149484
    vertex 69.80141551083874 -806.4136234616172 66.9350065806043
  endloop
endfacet
facet normal 3.936764109253867e-06 8.628784426598334e-06 0.9999999999550231
  outer loop
    vertex 69.80141551083874 -806.4136234616172 66.9350065806043
    vertex 47.45943647076209 -806.19611951473 66.93532204149484
    vertex 47.766577935455786 -809.314579138864 66.93532204149493
  endloop
endfacet
facet normal 3.936764109253867e-06 8.628784426598334e-06 0.9999999999550231
  outer loop
    vertex 69.80141551083874 -806.4136234616172 66.9350065806043
    vertex 47.766577935455786 -809.314579138864 66.93532204149493
    vertex 70.07494719280491 -808.0703804266935 66.93500658060444
  endloop
endfacet
facet normal 3.936764109253867e-06 8.628784426598334e-06 0.9999999999550231
  outer loop
    vertex 70.07494719280491 -808.0703804266935 66.93500658060444
    vertex 47.766577935455786 -809.314579138864 66.93532204149493
    vertex 70.45625031233317 -809.7057003199884 66.93500658060448
  endloop
endfacet
facet normal 3.936764109253867e-06 8.628784426598334e-06 0.9999999999550231
  outer loop
    vertex 70.45625031233317 -809.7057003199884 66.93500658060448
    vertex 47.766577935455786 -809.314579138864 66.93532204149493
    vertex 48.27701880449307 -812.4062738886581 66.93532204149501
  endloop
endfacet
facet normal 3.936764109253867e-06 8.628784426598334e-06 0.9999999999550231
  outer loop
    vertex 70.45625031233317 -809.7057003199884 66.93500658060448
    vertex 48.27701880449307 -812.4062738886581 66.93532204149501
    vertex 70.94369207092694 -811.31258045066 66.93500658060444
  endloop
endfacet
facet normal 3.936764109253867e-06 8.628784426598334e-06 0.9999999999550231
  outer loop
    vertex 70.94369207092694 -811.31258045066 66.93500658060444
    vertex 48.27701880449307 -812.4062738886581 66.93532204149501
    vertex 71.53518516814248 -812.884139911296 66.93500658060448
  endloop
endfacet
facet normal 3.936764109253867e-06 8.628784426598334e-06 0.9999999999550231
  outer loop
    vertex 71.53518516814248 -812.884139911296 66.93500658060448
    vertex 48.27701880449307 -812.4062738886581 66.93532204149501
    vertex 48.98857329170855 -815.4579646525481 66.93532204149518
  endloop
endfacet
facet normal 3.936764109253867e-06 8.628784426598334e-06 0.9999999999550231
  outer loop
    vertex 71.53518516814248 -812.884139911296 66.93500658060448
    vertex 48.98857329170855 -815.4579646525481 66.93532204149518
    vertex 72.22819673972988 -814.4136490430158 66.93500658060462
  endloop
endfacet
facet normal 3.936764109253867e-06 8.628784426598334e-06 0.9999999999550231
  outer loop
    vertex 72.22819673972988 -814.4136490430158 66.93500658060462
    vertex 48.98857329170855 -815.4579646525481 66.93532204149518
    vertex 73.0197592037465 -815.8945582529026 66.93500658060456
  endloop
endfacet
facet normal 3.936764109253867e-06 8.628784426598334e-06 0.9999999999550231
  outer loop
    vertex 73.0197592037465 -815.8945582529026 66.93500658060456
    vertex 48.98857329170855 -815.4579646525481 66.93532204149518
    vertex 49.89819441154815 -818.456583622179 66.93532204149537
  endloop
endfacet
facet normal 3.936764109253867e-06 8.628784426598334e-06 0.9999999999550231
  outer loop
    vertex 73.0197592037465 -815.8945582529026 66.93500658060456
    vertex 49.89819441154815 -818.456583622179 66.93532204149537
    vertex 73.90648296819863 -817.3205260603667 66.93500658060478
  endloop
endfacet
facet normal 3.936764109253867e-06 8.628784426598334e-06 0.9999999999550231
  outer loop
    vertex 73.90648296819863 -817.3205260603667 66.93500658060478
    vertex 49.89819441154815 -818.456583622179 66.93532204149537
    vertex 74.88457094579451 -818.6854462523378 66.93500658060474
  endloop
endfacet
facet normal 3.936764109253867e-06 8.628784426598334e-06 0.9999999999550231
  outer loop
    vertex 74.88457094579451 -818.6854462523378 66.93500658060474
    vertex 49.89819441154815 -818.456583622179 66.93532204149537
    vertex 51.00198702672908 -821.3892902507662 66.93532204149535
  endloop
endfacet
facet normal 3.936764109253867e-06 8.628784426598334e-06 0.9999999999550231
  outer loop
    vertex 74.88457094579451 -818.6854462523378 66.93500658060474
    vertex 51.00198702672908 -821.3892902507662 66.93532204149535
    vertex 75.94983481365522 -819.9834740310076 66.93500658060478
  endloop
endfacet
facet normal 3.936764109253867e-06 8.628784426598334e-06 0.9999999999550231
  outer loop
    vertex 75.94983481365522 -819.9834740310076 66.93500658060478
    vertex 51.00198702672908 -821.3892902507662 66.93532204149535
    vertex 77.09771294835646 -821.209051042151 66.9350065806048
  endloop
endfacet
facet normal 3.936764109253867e-06 8.628784426598334e-06 0.9999999999550231
  outer loop
    vertex 77.09771294835646 -821.209051042151 66.9350065806048
    vertex 51.00198702672908 -821.3892902507662 66.93532204149535
    vertex 78.32328995949979 -822.3569291768522 66.93500658060483
  endloop
endfacet
facet normal 3.936764109253867e-06 8.628784426598334e-06 0.9999999999550231
  outer loop
    vertex 78.32328995949979 -822.3569291768522 66.93500658060483
    vertex 51.00198702672908 -821.3892902507662 66.93532204149535
    vertex 52.295224527815826 -824.2435262382892 66.93532204149544
  endloop
endfacet
facet normal 3.936764109253867e-06 8.628784426598334e-06 0.9999999999550231
  outer loop
    vertex 78.32328995949979 -822.3569291768522 66.93500658060483
    vertex 52.295224527815826 -824.2435262382892 66.93532204149544
    vertex 79.62131773816958 -823.4221930447129 66.93500658060486
  endloop
endfacet
facet normal 3.936764109253867e-06 8.628784426598334e-06 0.9999999999550231
  outer loop
    vertex 79.62131773816958 -823.4221930447129 66.93500658060486
    vertex 52.295224527815826 -824.2435262382892 66.93532204149544
    vertex 80.9862379301407 -824.4002810223088 66.93500658060499
  endloop
endfacet
facet normal 3.936764109253867e-06 8.628784426598334e-06 0.9999999999550231
  outer loop
    vertex 80.9862379301407 -824.4002810223088 66.93500658060499
    vertex 52.295224527815826 -824.2435262382892 66.93532204149544
    vertex 53.772369073287386 -827.0070693080588 66.93532204149561
  endloop
endfacet
facet normal 3.936764109253867e-06 8.628784426598334e-06 0.9999999999550231
  outer loop
    vertex 80.9862379301407 -824.4002810223088 66.93500658060499
    vertex 53.772369073287386 -827.0070693080588 66.93532204149561
    vertex 82.41220573760475 -825.2870047867609 66.93500658060492
  endloop
endfacet
facet normal 3.936764109253867e-06 8.628784426598334e-06 0.9999999999550231
  outer loop
    vertex 82.41220573760475 -825.2870047867609 66.93500658060492
    vertex 53.772369073287386 -827.0070693080588 66.93532204149561
    vertex 83.89311494749175 -826.0785672507775 66.93500658060495
  endloop
endfacet
facet normal 3.936764109253867e-06 8.628784426598334e-06 0.9999999999550231
  outer loop
    vertex 83.89311494749175 -826.0785672507775 66.93500658060495
    vertex 53.772369073287386 -827.0070693080588 66.93532204149561
    vertex 85.42262407921143 -826.7715788223651 66.93500658060496
  endloop
endfacet
facet normal 3.936764109253867e-06 8.628784426598334e-06 0.9999999999550231
  outer loop
    vertex 85.42262407921143 -826.7715788223651 66.93500658060496
    vertex 53.772369073287386 -827.0070693080588 66.93532204149561
    vertex 86.9941835398474 -827.3630719195805 66.93500658060506
  endloop
endfacet
facet normal 3.936764109253867e-06 8.628784426598334e-06 0.9999999999550231
  outer loop
    vertex 86.9941835398474 -827.3630719195805 66.93500658060506
    vertex 53.772369073287386 -827.0070693080588 66.93532204149561
    vertex 55.42709530342449 -829.6680855443835 66.93532204149568
  endloop
endfacet
facet normal 3.936764109253867e-06 8.628784426598334e-06 0.9999999999550231
  outer loop
    vertex 86.9941835398474 -827.3630719195805 66.93500658060506
    vertex 55.42709530342449 -829.6680855443835 66.93532204149568
    vertex 88.60106367051898 -827.8505136781744 66.93500658060508
  endloop
endfacet
facet normal 3.936764109253867e-06 8.628784426598334e-06 0.9999999999550231
  outer loop
    vertex 88.60106367051898 -827.8505136781744 66.93500658060508
    vertex 55.42709530342449 -829.6680855443835 66.93532204149568
    vertex 90.23638356381399 -828.2318167977024 66.935006580605
  endloop
endfacet
facet normal 3.936764109253867e-06 8.628784426598334e-06 0.9999999999550231
  outer loop
    vertex 90.23638356381399 -828.2318167977024 66.935006580605
    vertex 55.42709530342449 -829.6680855443835 66.93532204149568
    vertex 91.89314052889023 -828.5053484796687 66.935006580605
  endloop
endfacet
facet normal 3.936764109253867e-06 8.628784426598334e-06 0.9999999999550231
  outer loop
    vertex 91.89314052889023 -828.5053484796687 66.935006580605
    vertex 55.42709530342449 -829.6680855443835 66.93532204149568
    vertex 93.56424007807352 -828.6699374194174 66.93500658060502
  endloop
endfacet
facet normal 3.936764109253867e-06 8.628784426598334e-06 0.9999999999550231
  outer loop
    vertex 93.56424007807352 -828.6699374194174 66.93500658060502
    vertex 55.42709530342449 -829.6680855443835 66.93532204149568
    vertex 95.13323908894758 -828.7248788218401 66.93500658060512
  endloop
endfacet
facet normal 3.936764109253867e-06 8.628784426598334e-06 0.9999999999550231
  outer loop
    vertex 95.13323908894758 -828.7248788218401 66.93500658060512
    vertex 55.42709530342449 -829.6680855443835 66.93532204149568
    vertex 95.24252630654217 -828.7248788218401 66.93500658060502
  endloop
endfacet
facet normal 3.936764109253867e-06 8.628784426598334e-06 0.9999999999550231
  outer loop
    vertex 95.24252630654217 -828.7248788218401 66.93500658060502
    vertex 55.42709530342449 -829.6680855443835 66.93532204149568
    vertex 158.74252630654217 -828.7248788218401 66.93500658060493
  endloop
endfacet
facet normal 3.936764109253867e-06 8.628784426598334e-06 0.9999999999550231
  outer loop
    vertex 158.74252630654217 -828.7248788218401 66.93500658060493
    vertex 55.42709530342449 -829.6680855443835 66.93532204149568
    vertex 158.74255077519214 -850.9498898769963 66.93532204149594
  endloop
endfacet
facet normal 3.936764109253867e-06 8.628784426598334e-06 0.9999999999550231
  outer loop
    vertex 158.74255077519214 -850.9498898769963 66.93532204149594
    vertex 55.42709530342449 -829.6680855443835 66.93532204149568
    vertex 57.25231742647178 -832.2151800672128 66.93532204149575
  endloop
endfacet
facet normal 3.936764109253867e-06 8.628784426598334e-06 0.9999999999550231
  outer loop
    vertex 158.74255077519214 -850.9498898769963 66.93532204149594
    vertex 57.25231742647178 -832.2151800672128 66.93532204149575
    vertex 59.24021956108492 -834.6374458267629 66.935322041496
  endloop
endfacet
facet normal 3.936764109253867e-06 8.628784426598334e-06 0.9999999999550231
  outer loop
    vertex 158.74255077519214 -850.9498898769963 66.93532204149594
    vertex 59.24021956108492 -834.6374458267629 66.935322041496
    vertex 61.382289205135365 -836.9245103091783 66.93532204149588
  endloop
endfacet
facet normal 3.936764109253867e-06 8.628784426598334e-06 0.9999999999550231
  outer loop
    vertex 158.74255077519214 -850.9498898769963 66.93532204149594
    vertex 61.382289205135365 -836.9245103091783 66.93532204149588
    vertex 63.66935368755066 -839.0665799532286 66.93532204149595
  endloop
endfacet
facet normal 3.936764109253867e-06 8.628784426598334e-06 0.9999999999550231
  outer loop
    vertex 158.74255077519214 -850.9498898769963 66.93532204149594
    vertex 63.66935368755066 -839.0665799532286 66.93532204149595
    vertex 66.09161944710067 -841.0544820878418 66.93532204149611
  endloop
endfacet
facet normal 3.936764109253867e-06 8.628784426598334e-06 0.9999999999550231
  outer loop
    vertex 158.74255077519214 -850.9498898769963 66.93532204149594
    vertex 66.09161944710067 -841.0544820878418 66.93532204149611
    vertex 68.63871396992998 -842.8797042108891 66.93532204149615
  endloop
endfacet
facet normal 3.936764109253867e-06 8.628784426598334e-06 0.9999999999550231
  outer loop
    vertex 158.74255077519214 -850.9498898769963 66.93532204149594
    vertex 68.63871396992998 -842.8797042108891 66.93532204149615
    vertex 71.29973020625472 -844.5344304410262 66.93532204149611
  endloop
endfacet
facet normal 3.936764109253867e-06 8.628784426598334e-06 0.9999999999550231
  outer loop
    vertex 158.74255077519214 -850.9498898769963 66.93532204149594
    vertex 71.29973020625472 -844.5344304410262 66.93532204149611
    vertex 74.06327327602438 -846.0115749864977 66.93532204149615
  endloop
endfacet
facet normal 3.936764109253867e-06 8.628784426598334e-06 0.9999999999550231
  outer loop
    vertex 158.74255077519214 -850.9498898769963 66.93532204149594
    vertex 74.06327327602438 -846.0115749864977 66.93532204149615
    vertex 76.91750926354727 -847.3048124875845 66.93532204149626
  endloop
endfacet
facet normal 3.936764109253867e-06 8.628784426598334e-06 0.9999999999550231
  outer loop
    vertex 158.74255077519214 -850.9498898769963 66.93532204149594
    vertex 76.91750926354727 -847.3048124875845 66.93532204149626
    vertex 79.85021589213457 -848.4086051027654 66.9353220414963
  endloop
endfacet
facet normal 3.936764109253867e-06 8.628784426598334e-06 0.9999999999550231
  outer loop
    vertex 158.74255077519214 -850.9498898769963 66.93532204149594
    vertex 79.85021589213457 -848.4086051027654 66.9353220414963
    vertex 82.84883486176543 -849.318226222605 66.93532204149625
  endloop
endfacet
facet normal 3.936764109253867e-06 8.628784426598334e-06 0.9999999999550231
  outer loop
    vertex 158.74255077519214 -850.9498898769963 66.93532204149594
    vertex 82.84883486176543 -849.318226222605 66.93532204149625
    vertex 85.90052562565538 -850.0297807098206 66.93532204149626
  endloop
endfacet
facet normal 3.936764109253867e-06 8.628784426598334e-06 0.9999999999550231
  outer loop
    vertex 158.74255077519214 -850.9498898769963 66.93532204149594
    vertex 85.90052562565538 -850.0297807098206 66.93532204149626
    vertex 88.99222037544955 -850.5402215788578 66.93532204149638
  endloop
endfacet
facet normal 3.936764109253867e-06 8.628784426598334e-06 0.9999999999550231
  outer loop
    vertex 158.74255077519214 -850.9498898769963 66.93532204149594
    vertex 88.99222037544955 -850.5402215788578 66.93532204149638
    vertex 92.11067999958348 -850.8473630435514 66.93532204149638
  endloop
endfacet
facet normal 3.936764109253867e-06 8.628784426598334e-06 0.9999999999550231
  outer loop
    vertex 158.74255077519214 -850.9498898769963 66.93532204149594
    vertex 92.11067999958348 -850.8473630435514 66.93532204149638
    vertex 95.13323908894758 -850.9498898769963 66.93500658060574
  endloop
endfacet
facet normal 3.936764109253867e-06 8.628784426598334e-06 0.9999999999550231
  outer loop
    vertex 158.74255077519214 -850.9498898769963 66.93532204149594
    vertex 95.13323908894758 -850.9498898769963 66.93500658060574
    vertex 95.23873549812386 -850.9498898769963 66.9353220414962
  endloop
endfacet
endsolid conveyor r2
